<!DOCTYPE svg PUBLIC "-//W3C//DTD SVG 1.1//EN" "http://www.w3.org/Graphics/SVG/1.1/DTD/svg11.dtd">
<!-- Uploaded to: SVG Repo, www.svgrepo.com, Transformed by: SVG Repo Mixer Tools -->
<svg width="800px" height="800px" viewBox="-4 0 28 28" version="1.1" xmlns="http://www.w3.org/2000/svg" xmlns:xlink="http://www.w3.org/1999/xlink" xmlns:sketch="http://www.bohemiancoding.com/sketch/ns" fill="#ffffff" stroke="#ffffff">
<g id="SVGRepo_bgCarrier" stroke-width="0"/>
<g id="SVGRepo_tracerCarrier" stroke-linecap="round" stroke-linejoin="round"/>
<g id="SVGRepo_iconCarrier"> <title>pauze</title> <desc>Created with Sketch Beta.</desc> <defs> </defs> <g id="Page-1" stroke-width="2.8" fill="none" fill-rule="evenodd" sketch:type="MSPage"> <g id="Icon-Set-Filled" sketch:type="MSLayerGroup" transform="translate(-472.000000, -571.000000)" fill="#ffffff"> <path d="M490,571 L486,571 C484.896,571 484,571.896 484,573 L484,597 C484,598.104 484.896,599 486,599 L490,599 C491.104,599 492,598.104 492,597 L492,573 C492,571.896 491.104,571 490,571 L490,571 Z M478,571 L474,571 C472.896,571 472,571.896 472,573 L472,597 C472,598.104 472.896,599 474,599 L478,599 C479.104,599 480,598.104 480,597 L480,573 C480,571.896 479.104,571 478,571 L478,571 Z" id="pauze" sketch:type="MSShapeGroup"> </path> </g> </g> </g>
</svg>